<svg style="position:absolute;left:0px;top:0px;direction:ltr" xmlns:xlink="http://www.w3.org/1999/xlink" stroke="#000000" stroke-width="0" fill="#000000" width="493" height="348.5858585858586"><defs></defs><g transform="scale(0.165993265993266)"><text font-size="121.42930000000001" text-rendering="geometricPrecision" text-anchor="middle" dominant-baseline="central" style="pointer-events: none; white-space: pre; font-family: Arial;" x="1485" y="155">Tercia A - Jenča Adam</text><text font-size="56.66661" text-rendering="geometricPrecision" text-anchor="middle" dominant-baseline="central" style="pointer-events: none; white-space: pre; font-family: Arial;" x="487.5" y="335">1</text><text font-size="23.517799999999998" text-rendering="geometricPrecision" text-anchor="middle" dominant-baseline="text-after-edge" style="pointer-events: none; white-space: pre; font-family: Arial;" x="487.5" y="411.5">8:00 - 8:45</text><line x1="630" y1="250" x2="630" y2="420" stroke-width="1"></line><text font-size="56.66661" text-rendering="geometricPrecision" text-anchor="middle" dominant-baseline="central" style="pointer-events: none; white-space: pre; font-family: Arial;" x="772.5" y="335">2</text><text font-size="23.517799999999998" text-rendering="geometricPrecision" text-anchor="middle" dominant-baseline="text-after-edge" style="pointer-events: none; white-space: pre; font-family: Arial;" x="772.5" y="411.5">8:50 - 9:35</text><line x1="915" y1="250" x2="915" y2="420" stroke-width="1"></line><text font-size="56.66661" text-rendering="geometricPrecision" text-anchor="middle" dominant-baseline="central" style="pointer-events: none; white-space: pre; font-family: Arial;" x="1057.5" y="335">3</text><text font-size="23.517799999999998" text-rendering="geometricPrecision" text-anchor="middle" dominant-baseline="text-after-edge" style="pointer-events: none; white-space: pre; font-family: Arial;" x="1057.5" y="411.5">9:50 - 10:35</text><line x1="1200" y1="250" x2="1200" y2="420" stroke-width="1"></line><text font-size="56.66661" text-rendering="geometricPrecision" text-anchor="middle" dominant-baseline="central" style="pointer-events: none; white-space: pre; font-family: Arial;" x="1342.5" y="335">4</text><text font-size="23.517799999999998" text-rendering="geometricPrecision" text-anchor="middle" dominant-baseline="text-after-edge" style="pointer-events: none; white-space: pre; font-family: Arial;" x="1342.5" y="411.5">10:50 - 11:35</text><line x1="1485" y1="250" x2="1485" y2="420" stroke-width="1"></line><text font-size="56.66661" text-rendering="geometricPrecision" text-anchor="middle" dominant-baseline="central" style="pointer-events: none; white-space: pre; font-family: Arial;" x="1627.5" y="335">5</text><text font-size="23.517799999999998" text-rendering="geometricPrecision" text-anchor="middle" dominant-baseline="text-after-edge" style="pointer-events: none; white-space: pre; font-family: Arial;" x="1627.5" y="411.5">11:45 - 12:30</text><line x1="1770" y1="250" x2="1770" y2="420" stroke-width="1"></line><text font-size="56.66661" text-rendering="geometricPrecision" text-anchor="middle" dominant-baseline="central" style="pointer-events: none; white-space: pre; font-family: Arial;" x="1912.5" y="335">6</text><text font-size="23.517799999999998" text-rendering="geometricPrecision" text-anchor="middle" dominant-baseline="text-after-edge" style="pointer-events: none; white-space: pre; font-family: Arial;" x="1912.5" y="411.5">12:40 - 13:25</text><line x1="2055" y1="250" x2="2055" y2="420" stroke-width="1"></line><text font-size="56.66661" text-rendering="geometricPrecision" text-anchor="middle" dominant-baseline="central" style="pointer-events: none; white-space: pre; font-family: Arial;" x="2197.5" y="335">7</text><text font-size="23.517799999999998" text-rendering="geometricPrecision" text-anchor="middle" dominant-baseline="text-after-edge" style="pointer-events: none; white-space: pre; font-family: Arial;" x="2197.5" y="411.5">13:30 - 14:15</text><line x1="2340" y1="250" x2="2340" y2="420" stroke-width="1"></line><text font-size="56.66661" text-rendering="geometricPrecision" text-anchor="middle" dominant-baseline="central" style="pointer-events: none; white-space: pre; font-family: Arial;" x="2482.5" y="335">8</text><text font-size="23.517799999999998" text-rendering="geometricPrecision" text-anchor="middle" dominant-baseline="text-after-edge" style="pointer-events: none; white-space: pre; font-family: Arial;" x="2482.5" y="411.5">14:15 - 15:00</text><line x1="2625" y1="250" x2="2625" y2="420" stroke-width="1"></line><text font-size="56.66661" text-rendering="geometricPrecision" text-anchor="middle" dominant-baseline="central" style="pointer-events: none; white-space: pre; font-family: Arial;" x="2767.5" y="335">9</text><text font-size="23.517799999999998" text-rendering="geometricPrecision" text-anchor="middle" dominant-baseline="text-after-edge" style="pointer-events: none; white-space: pre; font-family: Arial;" x="2767.5" y="411.5">15:00 - 15:45</text><line x1="630" y1="420" x2="630" y2="1950" stroke-width="1"></line><line x1="915" y1="420" x2="915" y2="1950" stroke-width="1"></line><line x1="1200" y1="420" x2="1200" y2="1950" stroke-width="1"></line><line x1="1485" y1="420" x2="1485" y2="1950" stroke-width="1"></line><line x1="1770" y1="420" x2="1770" y2="1950" stroke-width="1"></line><line x1="2055" y1="420" x2="2055" y2="1950" stroke-width="1"></line><line x1="2340" y1="420" x2="2340" y2="1950" stroke-width="1"></line><line x1="2625" y1="420" x2="2625" y2="1950" stroke-width="1"></line><text font-size="122.15795399999999" text-rendering="geometricPrecision" text-anchor="middle" dominant-baseline="central" style="pointer-events: none; white-space: pre; font-family: Arial;" x="202.5" y="573">Po</text><line x1="60" y1="726" x2="345" y2="726" stroke-width="1"></line><text font-size="122.15795399999999" text-rendering="geometricPrecision" text-anchor="middle" dominant-baseline="central" style="pointer-events: none; white-space: pre; font-family: Arial;" x="202.5" y="879">Ut</text><line x1="60" y1="1032" x2="345" y2="1032" stroke-width="1"></line><text font-size="122.15795399999999" text-rendering="geometricPrecision" text-anchor="middle" dominant-baseline="central" style="pointer-events: none; white-space: pre; font-family: Arial;" x="202.5" y="1185">St</text><line x1="60" y1="1338" x2="345" y2="1338" stroke-width="1"></line><text font-size="122.15795399999999" text-rendering="geometricPrecision" text-anchor="middle" dominant-baseline="central" style="pointer-events: none; white-space: pre; font-family: Arial;" x="202.5" y="1491">Št</text><line x1="60" y1="1644" x2="345" y2="1644" stroke-width="1"></line><text font-size="122.15795399999999" text-rendering="geometricPrecision" text-anchor="middle" dominant-baseline="central" style="pointer-events: none; white-space: pre; font-family: Arial;" x="202.5" y="1797">Pi</text><line x1="345" y1="726" x2="2910" y2="726" stroke-width="1"></line><line x1="345" y1="1032" x2="2910" y2="1032" stroke-width="1"></line><line x1="345" y1="1338" x2="2910" y2="1338" stroke-width="1"></line><line x1="345" y1="1644" x2="2910" y2="1644" stroke-width="1"></line><rect x="1770" y="420" width="285" height="306" style="fill:#fff" stroke="none"><title>Etická výchova
ETV
Sirotná Darja</title></rect><text font-size="79.56" text-rendering="geometricPrecision" text-anchor="middle" dominant-baseline="central" style="pointer-events: none; white-space: pre; font-family: Arial;" x="1912.5" y="573">ETV</text><text font-size="30.6" text-rendering="geometricPrecision" text-anchor="end" dominant-baseline="text-before-edge" style="pointer-events: none; white-space: pre; font-family: Arial;" x="2040.75" y="435.3">ETV</text><text font-size="30.6" text-rendering="geometricPrecision" text-anchor="end" dominant-baseline="text-after-edge" style="pointer-events: none; white-space: pre; font-family: Arial;" x="2040.75" y="710.7">SirD</text><line x1="1770" y1="420" x2="2055" y2="420" stroke-width="1"></line><line x1="1770" y1="726" x2="2055" y2="726" stroke-width="1"></line><line x1="1770" y1="420" x2="1770" y2="726" stroke-width="1"></line><line x1="2055" y1="420" x2="2055" y2="726" stroke-width="1"></line><rect x="630" y="420" width="285" height="306" style="fill:#fff" stroke="none"><title>Matematika
Valášková Zuzana</title></rect><text font-size="79.56" text-rendering="geometricPrecision" text-anchor="middle" dominant-baseline="central" style="pointer-events: none; white-space: pre; font-family: Arial;" x="772.5" y="573">MAT</text><text font-size="30.6" text-rendering="geometricPrecision" text-anchor="end" dominant-baseline="text-after-edge" style="pointer-events: none; white-space: pre; font-family: Arial;" x="900.75" y="710.7">ValZ</text><line x1="630" y1="420" x2="915" y2="420" stroke-width="1"></line><line x1="630" y1="726" x2="915" y2="726" stroke-width="1"></line><line x1="630" y1="420" x2="630" y2="726" stroke-width="1"></line><line x1="915" y1="420" x2="915" y2="726" stroke-width="1"></line><rect x="1485" y="420" width="285" height="306" style="fill:#fff" stroke="none"><title>Slovenský jazyk a literatúra
Hrapková Marcela</title></rect><text font-size="79.56" text-rendering="geometricPrecision" text-anchor="middle" dominant-baseline="central" style="pointer-events: none; white-space: pre; font-family: Arial;" x="1627.5" y="573">SJL</text><text font-size="30.6" text-rendering="geometricPrecision" text-anchor="end" dominant-baseline="text-after-edge" style="pointer-events: none; white-space: pre; font-family: Arial;" x="1755.75" y="710.7">HraM</text><line x1="1485" y1="420" x2="1770" y2="420" stroke-width="1"></line><line x1="1485" y1="726" x2="1770" y2="726" stroke-width="1"></line><line x1="1485" y1="420" x2="1485" y2="726" stroke-width="1"></line><line x1="1770" y1="420" x2="1770" y2="726" stroke-width="1"></line><rect x="345" y="420" width="285" height="306" style="fill:#fff" stroke="none"><title>Fyzika
Gondová Martina
LFz</title></rect><text font-size="79.56" text-rendering="geometricPrecision" text-anchor="middle" dominant-baseline="central" style="pointer-events: none; white-space: pre; font-family: Arial;" x="487.5" y="573">FYZ</text><text font-size="30.6" text-rendering="geometricPrecision" text-anchor="end" dominant-baseline="text-after-edge" style="pointer-events: none; white-space: pre; font-family: Arial;" x="615.75" y="710.7">GonM</text><text font-size="30.6" text-rendering="geometricPrecision" text-anchor="start" dominant-baseline="text-after-edge" style="pointer-events: none; white-space: pre; font-family: Arial;" x="359.25" y="710.7">LFz</text><line x1="345" y1="420" x2="630" y2="420" stroke-width="1"></line><line x1="345" y1="726" x2="630" y2="726" stroke-width="1"></line><line x1="345" y1="420" x2="345" y2="726" stroke-width="1"></line><line x1="630" y1="420" x2="630" y2="726" stroke-width="1"></line><rect x="915" y="420" width="285" height="306" style="fill:#fff" stroke="none"><title>Nemecký jazyk
nj 2
Mayer Ján
307</title></rect><text font-size="79.56" text-rendering="geometricPrecision" text-anchor="middle" dominant-baseline="central" style="pointer-events: none; white-space: pre; font-family: Arial;" x="1057.5" y="573">NEJ</text><text font-size="30.6" text-rendering="geometricPrecision" text-anchor="end" dominant-baseline="text-before-edge" style="pointer-events: none; white-space: pre; font-family: Arial;" x="1185.75" y="435.3">nj 2</text><text font-size="30.6" text-rendering="geometricPrecision" text-anchor="end" dominant-baseline="text-after-edge" style="pointer-events: none; white-space: pre; font-family: Arial;" x="1185.75" y="710.7">MayJ</text><text font-size="30.6" text-rendering="geometricPrecision" text-anchor="start" dominant-baseline="text-after-edge" style="pointer-events: none; white-space: pre; font-family: Arial;" x="929.25" y="710.7">307</text><line x1="915" y1="420" x2="1200" y2="420" stroke-width="1"></line><line x1="915" y1="726" x2="1200" y2="726" stroke-width="1"></line><line x1="915" y1="420" x2="915" y2="726" stroke-width="1"></line><line x1="1200" y1="420" x2="1200" y2="726" stroke-width="1"></line><rect x="1200" y="420" width="285" height="306" style="fill:#fff" stroke="none"><title>Anglický jazyk
aj1
Žingorová Kuchárová Iva</title></rect><text font-size="79.56" text-rendering="geometricPrecision" text-anchor="middle" dominant-baseline="central" style="pointer-events: none; white-space: pre; font-family: Arial;" x="1342.5" y="573">ANJ</text><text font-size="30.6" text-rendering="geometricPrecision" text-anchor="end" dominant-baseline="text-before-edge" style="pointer-events: none; white-space: pre; font-family: Arial;" x="1470.75" y="435.3">aj1</text><text font-size="30.6" text-rendering="geometricPrecision" text-anchor="end" dominant-baseline="text-after-edge" style="pointer-events: none; white-space: pre; font-family: Arial;" x="1470.75" y="710.7">ŽinI</text><line x1="1200" y1="420" x2="1485" y2="420" stroke-width="1"></line><line x1="1200" y1="726" x2="1485" y2="726" stroke-width="1"></line><line x1="1200" y1="420" x2="1200" y2="726" stroke-width="1"></line><line x1="1485" y1="420" x2="1485" y2="726" stroke-width="1"></line><rect x="630" y="726" width="285" height="306" style="fill:#fff" stroke="none"><title>Matematika
Valášková Zuzana</title></rect><text font-size="79.56" text-rendering="geometricPrecision" text-anchor="middle" dominant-baseline="central" style="pointer-events: none; white-space: pre; font-family: Arial;" x="772.5" y="879">MAT</text><text font-size="30.6" text-rendering="geometricPrecision" text-anchor="end" dominant-baseline="text-after-edge" style="pointer-events: none; white-space: pre; font-family: Arial;" x="900.75" y="1016.7">ValZ</text><line x1="630" y1="726" x2="915" y2="726" stroke-width="1"></line><line x1="630" y1="1032" x2="915" y2="1032" stroke-width="1"></line><line x1="630" y1="726" x2="630" y2="1032" stroke-width="1"></line><line x1="915" y1="726" x2="915" y2="1032" stroke-width="1"></line><rect x="1485" y="726" width="285" height="306" style="fill:#fff" stroke="none"><title>Slovenský jazyk a literatúra
Hrapková Marcela</title></rect><text font-size="79.56" text-rendering="geometricPrecision" text-anchor="middle" dominant-baseline="central" style="pointer-events: none; white-space: pre; font-family: Arial;" x="1627.5" y="879">SJL</text><text font-size="30.6" text-rendering="geometricPrecision" text-anchor="end" dominant-baseline="text-after-edge" style="pointer-events: none; white-space: pre; font-family: Arial;" x="1755.75" y="1016.7">HraM</text><line x1="1485" y1="726" x2="1770" y2="726" stroke-width="1"></line><line x1="1485" y1="1032" x2="1770" y2="1032" stroke-width="1"></line><line x1="1485" y1="726" x2="1485" y2="1032" stroke-width="1"></line><line x1="1770" y1="726" x2="1770" y2="1032" stroke-width="1"></line><rect x="345" y="726" width="285" height="306" style="fill:#fff" stroke="none"><title>Občianska náuka
Deáková Zuzana</title></rect><text font-size="79.56" text-rendering="geometricPrecision" text-anchor="middle" dominant-baseline="central" style="pointer-events: none; white-space: pre; font-family: Arial;" x="487.5" y="879">OBN</text><text font-size="30.6" text-rendering="geometricPrecision" text-anchor="end" dominant-baseline="text-after-edge" style="pointer-events: none; white-space: pre; font-family: Arial;" x="615.75" y="1016.7">DeáZ</text><line x1="345" y1="726" x2="630" y2="726" stroke-width="1"></line><line x1="345" y1="1032" x2="630" y2="1032" stroke-width="1"></line><line x1="345" y1="726" x2="345" y2="1032" stroke-width="1"></line><line x1="630" y1="726" x2="630" y2="1032" stroke-width="1"></line><rect x="1200" y="726" width="285" height="306" style="fill:#fff" stroke="none"><title>Dejepis
Matúšková Lucia</title></rect><text font-size="79.56" text-rendering="geometricPrecision" text-anchor="middle" dominant-baseline="central" style="pointer-events: none; white-space: pre; font-family: Arial;" x="1342.5" y="879">DEJ</text><text font-size="30.6" text-rendering="geometricPrecision" text-anchor="end" dominant-baseline="text-after-edge" style="pointer-events: none; white-space: pre; font-family: Arial;" x="1470.75" y="1016.7">MatL</text><line x1="1200" y1="726" x2="1485" y2="726" stroke-width="1"></line><line x1="1200" y1="1032" x2="1485" y2="1032" stroke-width="1"></line><line x1="1200" y1="726" x2="1200" y2="1032" stroke-width="1"></line><line x1="1485" y1="726" x2="1485" y2="1032" stroke-width="1"></line><rect x="915" y="726" width="285" height="306" style="fill:#fff" stroke="none"><title>Fyzika
Gondová Martina
LFz</title></rect><text font-size="79.56" text-rendering="geometricPrecision" text-anchor="middle" dominant-baseline="central" style="pointer-events: none; white-space: pre; font-family: Arial;" x="1057.5" y="879">FYZ</text><text font-size="30.6" text-rendering="geometricPrecision" text-anchor="end" dominant-baseline="text-after-edge" style="pointer-events: none; white-space: pre; font-family: Arial;" x="1185.75" y="1016.7">GonM</text><text font-size="30.6" text-rendering="geometricPrecision" text-anchor="start" dominant-baseline="text-after-edge" style="pointer-events: none; white-space: pre; font-family: Arial;" x="929.25" y="1016.7">LFz</text><line x1="915" y1="726" x2="1200" y2="726" stroke-width="1"></line><line x1="915" y1="1032" x2="1200" y2="1032" stroke-width="1"></line><line x1="915" y1="726" x2="915" y2="1032" stroke-width="1"></line><line x1="1200" y1="726" x2="1200" y2="1032" stroke-width="1"></line><rect x="1770" y="726" width="285" height="306" style="fill:#fff" stroke="none"><title>Anglický jazyk
aj1
Bujačková Zuzana
401</title></rect><text font-size="79.56" text-rendering="geometricPrecision" text-anchor="middle" dominant-baseline="central" style="pointer-events: none; white-space: pre; font-family: Arial;" x="1912.5" y="879">ANJ</text><text font-size="30.6" text-rendering="geometricPrecision" text-anchor="end" dominant-baseline="text-before-edge" style="pointer-events: none; white-space: pre; font-family: Arial;" x="2040.75" y="741.3">aj1</text><text font-size="30.6" text-rendering="geometricPrecision" text-anchor="end" dominant-baseline="text-after-edge" style="pointer-events: none; white-space: pre; font-family: Arial;" x="2040.75" y="1016.7">BujZ</text><text font-size="30.6" text-rendering="geometricPrecision" text-anchor="start" dominant-baseline="text-after-edge" style="pointer-events: none; white-space: pre; font-family: Arial;" x="1784.25" y="1016.7">401</text><line x1="1770" y1="726" x2="2055" y2="726" stroke-width="1"></line><line x1="1770" y1="1032" x2="2055" y2="1032" stroke-width="1"></line><line x1="1770" y1="726" x2="1770" y2="1032" stroke-width="1"></line><line x1="2055" y1="726" x2="2055" y2="1032" stroke-width="1"></line><rect x="915" y="1032" width="285" height="306" style="fill:#fff" stroke="none"><title>Telesná a športová výchova
Chlapci
Fedák Tomáš
Tgv</title></rect><text font-size="79.56" text-rendering="geometricPrecision" text-anchor="middle" dominant-baseline="central" style="pointer-events: none; white-space: pre; font-family: Arial;" x="1057.5" y="1185">TSV</text><text font-size="30.6" text-rendering="geometricPrecision" text-anchor="end" dominant-baseline="text-before-edge" style="pointer-events: none; white-space: pre; font-family: Arial;" x="1185.75" y="1047.3">Chlapci</text><text font-size="30.6" text-rendering="geometricPrecision" text-anchor="end" dominant-baseline="text-after-edge" style="pointer-events: none; white-space: pre; font-family: Arial;" x="1185.75" y="1322.7">FedT</text><text font-size="30.6" text-rendering="geometricPrecision" text-anchor="start" dominant-baseline="text-after-edge" style="pointer-events: none; white-space: pre; font-family: Arial;" x="929.25" y="1322.7">Tgv</text><line x1="915" y1="1032" x2="1200" y2="1032" stroke-width="1"></line><line x1="915" y1="1338" x2="1200" y2="1338" stroke-width="1"></line><line x1="915" y1="1032" x2="915" y2="1338" stroke-width="1"></line><line x1="1200" y1="1032" x2="1200" y2="1338" stroke-width="1"></line><rect x="1485" y="1032" width="285" height="306" style="fill:#fff" stroke="none"><title>Matematika
Valášková Zuzana</title></rect><text font-size="79.56" text-rendering="geometricPrecision" text-anchor="middle" dominant-baseline="central" style="pointer-events: none; white-space: pre; font-family: Arial;" x="1627.5" y="1185">MAT</text><text font-size="30.6" text-rendering="geometricPrecision" text-anchor="end" dominant-baseline="text-after-edge" style="pointer-events: none; white-space: pre; font-family: Arial;" x="1755.75" y="1322.7">ValZ</text><line x1="1485" y1="1032" x2="1770" y2="1032" stroke-width="1"></line><line x1="1485" y1="1338" x2="1770" y2="1338" stroke-width="1"></line><line x1="1485" y1="1032" x2="1485" y2="1338" stroke-width="1"></line><line x1="1770" y1="1032" x2="1770" y2="1338" stroke-width="1"></line><rect x="345" y="1032" width="285" height="306" style="fill:#fff" stroke="none"><title>Slovenský jazyk a literatúra
Hrapková Marcela</title></rect><text font-size="79.56" text-rendering="geometricPrecision" text-anchor="middle" dominant-baseline="central" style="pointer-events: none; white-space: pre; font-family: Arial;" x="487.5" y="1185">SJL</text><text font-size="30.6" text-rendering="geometricPrecision" text-anchor="end" dominant-baseline="text-after-edge" style="pointer-events: none; white-space: pre; font-family: Arial;" x="615.75" y="1322.7">HraM</text><line x1="345" y1="1032" x2="630" y2="1032" stroke-width="1"></line><line x1="345" y1="1338" x2="630" y2="1338" stroke-width="1"></line><line x1="345" y1="1032" x2="345" y2="1338" stroke-width="1"></line><line x1="630" y1="1032" x2="630" y2="1338" stroke-width="1"></line><rect x="1200" y="1032" width="285" height="306" style="fill:#fff" stroke="none"><title>Geografia
Trupová Inez</title></rect><text font-size="79.56" text-rendering="geometricPrecision" text-anchor="middle" dominant-baseline="central" style="pointer-events: none; white-space: pre; font-family: Arial;" x="1342.5" y="1185">GEG</text><text font-size="30.6" text-rendering="geometricPrecision" text-anchor="end" dominant-baseline="text-after-edge" style="pointer-events: none; white-space: pre; font-family: Arial;" x="1470.75" y="1322.7">TruI</text><line x1="1200" y1="1032" x2="1485" y2="1032" stroke-width="1"></line><line x1="1200" y1="1338" x2="1485" y2="1338" stroke-width="1"></line><line x1="1200" y1="1032" x2="1200" y2="1338" stroke-width="1"></line><line x1="1485" y1="1032" x2="1485" y2="1338" stroke-width="1"></line><rect x="1770" y="1032" width="285" height="306" style="fill:#fff" stroke="none"><title>Dejepis
Matúšková Lucia</title></rect><text font-size="79.56" text-rendering="geometricPrecision" text-anchor="middle" dominant-baseline="central" style="pointer-events: none; white-space: pre; font-family: Arial;" x="1912.5" y="1185">DEJ</text><text font-size="30.6" text-rendering="geometricPrecision" text-anchor="end" dominant-baseline="text-after-edge" style="pointer-events: none; white-space: pre; font-family: Arial;" x="2040.75" y="1322.7">MatL</text><line x1="1770" y1="1032" x2="2055" y2="1032" stroke-width="1"></line><line x1="1770" y1="1338" x2="2055" y2="1338" stroke-width="1"></line><line x1="1770" y1="1032" x2="1770" y2="1338" stroke-width="1"></line><line x1="2055" y1="1032" x2="2055" y2="1338" stroke-width="1"></line><rect x="630" y="1032" width="285" height="306" style="fill:#fff" stroke="none"><title>Anglický jazyk
aj1
Bujačková Zuzana
402</title></rect><text font-size="79.56" text-rendering="geometricPrecision" text-anchor="middle" dominant-baseline="central" style="pointer-events: none; white-space: pre; font-family: Arial;" x="772.5" y="1185">ANJ</text><text font-size="30.6" text-rendering="geometricPrecision" text-anchor="end" dominant-baseline="text-before-edge" style="pointer-events: none; white-space: pre; font-family: Arial;" x="900.75" y="1047.3">aj1</text><text font-size="30.6" text-rendering="geometricPrecision" text-anchor="end" dominant-baseline="text-after-edge" style="pointer-events: none; white-space: pre; font-family: Arial;" x="900.75" y="1322.7">BujZ</text><text font-size="30.6" text-rendering="geometricPrecision" text-anchor="start" dominant-baseline="text-after-edge" style="pointer-events: none; white-space: pre; font-family: Arial;" x="644.25" y="1322.7">402</text><line x1="630" y1="1032" x2="915" y2="1032" stroke-width="1"></line><line x1="630" y1="1338" x2="915" y2="1338" stroke-width="1"></line><line x1="630" y1="1032" x2="630" y2="1338" stroke-width="1"></line><line x1="915" y1="1032" x2="915" y2="1338" stroke-width="1"></line><rect x="345" y="1338" width="285" height="306" style="fill:#fff" stroke="none"><title>Telesná a športová výchova
Chlapci
Fedák Tomáš
Tgv</title></rect><text font-size="79.56" text-rendering="geometricPrecision" text-anchor="middle" dominant-baseline="central" style="pointer-events: none; white-space: pre; font-family: Arial;" x="487.5" y="1491">TSV</text><text font-size="30.6" text-rendering="geometricPrecision" text-anchor="end" dominant-baseline="text-before-edge" style="pointer-events: none; white-space: pre; font-family: Arial;" x="615.75" y="1353.3">Chlapci</text><text font-size="30.6" text-rendering="geometricPrecision" text-anchor="end" dominant-baseline="text-after-edge" style="pointer-events: none; white-space: pre; font-family: Arial;" x="615.75" y="1628.7">FedT</text><text font-size="30.6" text-rendering="geometricPrecision" text-anchor="start" dominant-baseline="text-after-edge" style="pointer-events: none; white-space: pre; font-family: Arial;" x="359.25" y="1628.7">Tgv</text><line x1="345" y1="1338" x2="630" y2="1338" stroke-width="1"></line><line x1="345" y1="1644" x2="630" y2="1644" stroke-width="1"></line><line x1="345" y1="1338" x2="345" y2="1644" stroke-width="1"></line><line x1="630" y1="1338" x2="630" y2="1644" stroke-width="1"></line><rect x="1485" y="1338" width="285" height="306" style="fill:#fff" stroke="none"><title>Chémia
aj1
Beličková Ivana
LChz</title></rect><text font-size="79.56" text-rendering="geometricPrecision" text-anchor="middle" dominant-baseline="central" style="pointer-events: none; white-space: pre; font-family: Arial;" x="1627.5" y="1491">CHE</text><text font-size="30.6" text-rendering="geometricPrecision" text-anchor="end" dominant-baseline="text-before-edge" style="pointer-events: none; white-space: pre; font-family: Arial;" x="1755.75" y="1353.3">aj1</text><text font-size="30.6" text-rendering="geometricPrecision" text-anchor="end" dominant-baseline="text-after-edge" style="pointer-events: none; white-space: pre; font-family: Arial;" x="1755.75" y="1628.7">BelI</text><text font-size="30.6" text-rendering="geometricPrecision" text-anchor="start" dominant-baseline="text-after-edge" style="pointer-events: none; white-space: pre; font-family: Arial;" x="1499.25" y="1628.7">LChz</text><line x1="1485" y1="1338" x2="1770" y2="1338" stroke-width="1"></line><line x1="1485" y1="1644" x2="1770" y2="1644" stroke-width="1"></line><line x1="1485" y1="1338" x2="1485" y2="1644" stroke-width="1"></line><line x1="1770" y1="1338" x2="1770" y2="1644" stroke-width="1"></line><rect x="1200" y="1338" width="285" height="306" style="fill:#fff" stroke="none"><title>Informatika
i1
Bakošová Anna
SVL2</title></rect><text font-size="79.56" text-rendering="geometricPrecision" text-anchor="middle" dominant-baseline="central" style="pointer-events: none; white-space: pre; font-family: Arial;" x="1342.5" y="1491">INF</text><text font-size="30.6" text-rendering="geometricPrecision" text-anchor="end" dominant-baseline="text-before-edge" style="pointer-events: none; white-space: pre; font-family: Arial;" x="1470.75" y="1353.3">i1</text><text font-size="30.6" text-rendering="geometricPrecision" text-anchor="end" dominant-baseline="text-after-edge" style="pointer-events: none; white-space: pre; font-family: Arial;" x="1470.75" y="1628.7">BakA</text><text font-size="30.6" text-rendering="geometricPrecision" text-anchor="start" dominant-baseline="text-after-edge" style="pointer-events: none; white-space: pre; font-family: Arial;" x="1214.25" y="1628.7">SVL2</text><line x1="1200" y1="1338" x2="1485" y2="1338" stroke-width="1"></line><line x1="1200" y1="1644" x2="1485" y2="1644" stroke-width="1"></line><line x1="1200" y1="1338" x2="1200" y2="1644" stroke-width="1"></line><line x1="1485" y1="1338" x2="1485" y2="1644" stroke-width="1"></line><rect x="630" y="1338" width="285" height="306" style="fill:#fff" stroke="none"><title>Matematika
Valášková Zuzana</title></rect><text font-size="79.56" text-rendering="geometricPrecision" text-anchor="middle" dominant-baseline="central" style="pointer-events: none; white-space: pre; font-family: Arial;" x="772.5" y="1491">MAT</text><text font-size="30.6" text-rendering="geometricPrecision" text-anchor="end" dominant-baseline="text-after-edge" style="pointer-events: none; white-space: pre; font-family: Arial;" x="900.75" y="1628.7">ValZ</text><line x1="630" y1="1338" x2="915" y2="1338" stroke-width="1"></line><line x1="630" y1="1644" x2="915" y2="1644" stroke-width="1"></line><line x1="630" y1="1338" x2="630" y2="1644" stroke-width="1"></line><line x1="915" y1="1338" x2="915" y2="1644" stroke-width="1"></line><rect x="915" y="1338" width="285" height="306" style="fill:#fff" stroke="none"><title>Slovenský jazyk a literatúra
Hrapková Marcela</title></rect><text font-size="79.56" text-rendering="geometricPrecision" text-anchor="middle" dominant-baseline="central" style="pointer-events: none; white-space: pre; font-family: Arial;" x="1057.5" y="1491">SJL</text><text font-size="30.6" text-rendering="geometricPrecision" text-anchor="end" dominant-baseline="text-after-edge" style="pointer-events: none; white-space: pre; font-family: Arial;" x="1185.75" y="1628.7">HraM</text><line x1="915" y1="1338" x2="1200" y2="1338" stroke-width="1"></line><line x1="915" y1="1644" x2="1200" y2="1644" stroke-width="1"></line><line x1="915" y1="1338" x2="915" y2="1644" stroke-width="1"></line><line x1="1200" y1="1338" x2="1200" y2="1644" stroke-width="1"></line><rect x="1770" y="1338" width="285" height="306" style="fill:#fff" stroke="none"><title>Anglický jazyk
aj1
Žingorová Kuchárová Iva</title></rect><text font-size="79.56" text-rendering="geometricPrecision" text-anchor="middle" dominant-baseline="central" style="pointer-events: none; white-space: pre; font-family: Arial;" x="1912.5" y="1491">ANJ</text><text font-size="30.6" text-rendering="geometricPrecision" text-anchor="end" dominant-baseline="text-before-edge" style="pointer-events: none; white-space: pre; font-family: Arial;" x="2040.75" y="1353.3">aj1</text><text font-size="30.6" text-rendering="geometricPrecision" text-anchor="end" dominant-baseline="text-after-edge" style="pointer-events: none; white-space: pre; font-family: Arial;" x="2040.75" y="1628.7">ŽinI</text><line x1="1770" y1="1338" x2="2055" y2="1338" stroke-width="1"></line><line x1="1770" y1="1644" x2="2055" y2="1644" stroke-width="1"></line><line x1="1770" y1="1338" x2="1770" y2="1644" stroke-width="1"></line><line x1="2055" y1="1338" x2="2055" y2="1644" stroke-width="1"></line><rect x="630" y="1644" width="285" height="306" style="fill:#fff" stroke="none"><title>Chémia
Beličková Ivana</title></rect><text font-size="79.56" text-rendering="geometricPrecision" text-anchor="middle" dominant-baseline="central" style="pointer-events: none; white-space: pre; font-family: Arial;" x="772.5" y="1797">CHE</text><text font-size="30.6" text-rendering="geometricPrecision" text-anchor="end" dominant-baseline="text-after-edge" style="pointer-events: none; white-space: pre; font-family: Arial;" x="900.75" y="1934.7">BelI</text><line x1="630" y1="1644" x2="915" y2="1644" stroke-width="1"></line><line x1="630" y1="1950" x2="915" y2="1950" stroke-width="1"></line><line x1="630" y1="1644" x2="630" y2="1950" stroke-width="1"></line><line x1="915" y1="1644" x2="915" y2="1950" stroke-width="1"></line><rect x="1770" y="1644" width="285" height="306" style="fill:#fff" stroke="none"><title>Biológia
Beličková Ivana</title></rect><text font-size="79.56" text-rendering="geometricPrecision" text-anchor="middle" dominant-baseline="central" style="pointer-events: none; white-space: pre; font-family: Arial;" x="1912.5" y="1797">BIO</text><text font-size="30.6" text-rendering="geometricPrecision" text-anchor="end" dominant-baseline="text-after-edge" style="pointer-events: none; white-space: pre; font-family: Arial;" x="2040.75" y="1934.7">BelI</text><line x1="1770" y1="1644" x2="2055" y2="1644" stroke-width="1"></line><line x1="1770" y1="1950" x2="2055" y2="1950" stroke-width="1"></line><line x1="1770" y1="1644" x2="1770" y2="1950" stroke-width="1"></line><line x1="2055" y1="1644" x2="2055" y2="1950" stroke-width="1"></line><rect x="1200" y="1644" width="285" height="306" style="fill:#fff" stroke="none"><title>Matematika
Valášková Zuzana</title></rect><text font-size="79.56" text-rendering="geometricPrecision" text-anchor="middle" dominant-baseline="central" style="pointer-events: none; white-space: pre; font-family: Arial;" x="1342.5" y="1797">MAT</text><text font-size="30.6" text-rendering="geometricPrecision" text-anchor="end" dominant-baseline="text-after-edge" style="pointer-events: none; white-space: pre; font-family: Arial;" x="1470.75" y="1934.7">ValZ</text><line x1="1200" y1="1644" x2="1485" y2="1644" stroke-width="1"></line><line x1="1200" y1="1950" x2="1485" y2="1950" stroke-width="1"></line><line x1="1200" y1="1644" x2="1200" y2="1950" stroke-width="1"></line><line x1="1485" y1="1644" x2="1485" y2="1950" stroke-width="1"></line><rect x="915" y="1644" width="285" height="306" style="fill:#fff" stroke="none"><title>Slovenský jazyk a literatúra
Hrapková Marcela</title></rect><text font-size="79.56" text-rendering="geometricPrecision" text-anchor="middle" dominant-baseline="central" style="pointer-events: none; white-space: pre; font-family: Arial;" x="1057.5" y="1797">SJL</text><text font-size="30.6" text-rendering="geometricPrecision" text-anchor="end" dominant-baseline="text-after-edge" style="pointer-events: none; white-space: pre; font-family: Arial;" x="1185.75" y="1934.7">HraM</text><line x1="915" y1="1644" x2="1200" y2="1644" stroke-width="1"></line><line x1="915" y1="1950" x2="1200" y2="1950" stroke-width="1"></line><line x1="915" y1="1644" x2="915" y2="1950" stroke-width="1"></line><line x1="1200" y1="1644" x2="1200" y2="1950" stroke-width="1"></line><rect x="1485" y="1644" width="285" height="306" style="fill:#fff" stroke="none"><title>Geografia
Trupová Inez</title></rect><text font-size="79.56" text-rendering="geometricPrecision" text-anchor="middle" dominant-baseline="central" style="pointer-events: none; white-space: pre; font-family: Arial;" x="1627.5" y="1797">GEG</text><text font-size="30.6" text-rendering="geometricPrecision" text-anchor="end" dominant-baseline="text-after-edge" style="pointer-events: none; white-space: pre; font-family: Arial;" x="1755.75" y="1934.7">TruI</text><line x1="1485" y1="1644" x2="1770" y2="1644" stroke-width="1"></line><line x1="1485" y1="1950" x2="1770" y2="1950" stroke-width="1"></line><line x1="1485" y1="1644" x2="1485" y2="1950" stroke-width="1"></line><line x1="1770" y1="1644" x2="1770" y2="1950" stroke-width="1"></line><rect x="345" y="1644" width="285" height="306" style="fill:#fff" stroke="none"><title>Nemecký jazyk
nj 2
Mayer Ján</title></rect><text font-size="79.56" text-rendering="geometricPrecision" text-anchor="middle" dominant-baseline="central" style="pointer-events: none; white-space: pre; font-family: Arial;" x="487.5" y="1797">NEJ</text><text font-size="30.6" text-rendering="geometricPrecision" text-anchor="end" dominant-baseline="text-before-edge" style="pointer-events: none; white-space: pre; font-family: Arial;" x="615.75" y="1659.3">nj 2</text><text font-size="30.6" text-rendering="geometricPrecision" text-anchor="end" dominant-baseline="text-after-edge" style="pointer-events: none; white-space: pre; font-family: Arial;" x="615.75" y="1934.7">MayJ</text><line x1="345" y1="1644" x2="630" y2="1644" stroke-width="1"></line><line x1="345" y1="1950" x2="630" y2="1950" stroke-width="1"></line><line x1="345" y1="1644" x2="345" y2="1950" stroke-width="1"></line><line x1="630" y1="1644" x2="630" y2="1950" stroke-width="1"></line><line x1="60" y1="250" x2="2910" y2="250" stroke-width="3"></line><line x1="2910" y1="250" x2="2910" y2="1950" stroke-width="3"></line><line x1="2910" y1="1950" x2="60" y2="1950" stroke-width="3"></line><line x1="60" y1="1950" x2="60" y2="250" stroke-width="3"></line><line x1="345" y1="250" x2="345" y2="1950" stroke-width="3"></line><line x1="60" y1="420" x2="2910" y2="420" stroke-width="3"></line><text font-size="34" text-rendering="geometricPrecision" text-anchor="start" dominant-baseline="text-after-edge" style="pointer-events: none; white-space: pre;" x="60" y="243.2">Spojená škola Novohradská 3, Bratislava</text><text font-size="34" text-rendering="geometricPrecision" text-anchor="start" dominant-baseline="text-before-edge" style="pointer-events: none; white-space: pre;" x="60" y="1956.8">Platnosť: 13. 9. 2022-16. 6. 2023</text><text font-size="34" text-rendering="geometricPrecision" text-anchor="end" dominant-baseline="text-before-edge" style="pointer-events: none; white-space: pre;" x="2910" y="1956.8">aSc Rozvrhy Online</text></g></svg>